<?xml version="1.0" encoding="UTF-8"?>
<svg id="Livello_1" xmlns="http://www.w3.org/2000/svg" version="1.1" viewBox="0 0 1920 1080">
  <!-- Generator: Adobe Illustrator 30.1.0, SVG Export Plug-In . SVG Version: 2.1.1 Build 136)  -->
  <defs>
    <style>
      .st0 {
        fill: #dcc11e;
      }

      .st1 {
        fill: #db1d1e;
      }

      .st2 {
        fill: #dd731c;
      }
    </style>
  </defs>
  <rect id="interno_bocca" class="st1" x="710.8" y="638" width="496.6" height="139.6"/>
  <g id="denti_inferiori">
    <rect class="st2" x="724.5" y="730.7" width="25.7" height="50.2"/>
    <rect class="st2" x="758.9" y="730.7" width="25.7" height="50.2"/>
    <rect class="st2" x="793" y="730.7" width="25.7" height="50.2"/>
    <rect class="st2" x="827.2" y="730.7" width="25.7" height="50.2"/>
    <rect class="st2" x="861.5" y="730.7" width="25.7" height="50.2"/>
    <rect class="st2" x="895.8" y="730.7" width="25.7" height="50.2"/>
    <rect class="st2" x="930" y="730.7" width="25.7" height="50.2"/>
    <rect class="st2" x="964.2" y="730.7" width="25.7" height="50.2"/>
    <rect class="st2" x="998.5" y="730.7" width="25.7" height="50.2"/>
    <rect class="st2" x="1032.8" y="730.7" width="25.7" height="50.2"/>
    <rect class="st2" x="1067" y="730.7" width="25.7" height="50.2"/>
    <rect class="st2" x="1101.3" y="730.7" width="25.7" height="50.2"/>
    <rect class="st2" x="1135.5" y="730.7" width="25.7" height="50.2"/>
    <rect class="st2" x="1169.8" y="730.7" width="25.7" height="50.2"/>
  </g>
  <g id="denti_superiori">
    <rect class="st2" x="723.6" y="638" width="25.7" height="52.8"/>
    <rect class="st2" x="757.9" y="638" width="25.7" height="52.8"/>
    <rect class="st2" x="792.1" y="638" width="25.7" height="52.8"/>
    <rect class="st2" x="826.3" y="638" width="25.7" height="52.8"/>
    <rect class="st2" x="860.6" y="638" width="25.7" height="52.8"/>
    <rect class="st2" x="894.8" y="638" width="25.7" height="52.8"/>
    <rect class="st2" x="929.1" y="638" width="25.7" height="52.8"/>
    <rect class="st2" x="963.3" y="638" width="25.7" height="52.8"/>
    <rect class="st2" x="997.6" y="638" width="25.7" height="52.8"/>
    <rect class="st2" x="1031.8" y="638" width="25.7" height="52.8"/>
    <rect class="st2" x="1066.1" y="638" width="25.7" height="52.8"/>
    <rect class="st2" x="1100.3" y="638" width="25.7" height="52.8"/>
    <rect class="st2" x="1134.6" y="638" width="25.7" height="52.8"/>
    <rect class="st2" x="1168.8" y="638" width="25.7" height="52.8"/>
  </g>
  <path id="viso_sx" class="st1" d="M934.1,380.1c-5.6-16.9-14.9-35.8-30.7-52.7-20.1-21.6-47.5-37.2-76.8-44-17.4-4.1-35.3-5.1-52.8-2.4-11.3,1.7-22.4,4.9-33,9.8-3,1.4-5.9,2.9-8.7,4.5-45.6,26.1-66.5,79.5-68.8,122.1-1.4,26.6,4.5,49,16.2,57.7,17.5,13,36.4-12.5,108.2-17.3,33.3-2.2,87.4-5.8,122.2,26.5,1.5,1.4,2.9,2.8,4.2,4.2,7.8-6,15.6-12.1,23.4-18.2,2.3-1.7,4.7-3.1,7.3-4.1-2.7-33.2-8.8-70.9-10.7-86.1h0ZM859.7,409.5c-10.6,17.5-40,17.1-58.3,8.9-22.1-9.9-38.3-45.3-25.4-66.5,10.6-17.5,40.6-16.5,58.9-8.3,22.1,9.9,37.7,44.7,24.8,65.9Z"/>
  <path id="viso_dx" class="st1" d="M985.9,380.1c5.6-16.9,14.9-35.8,30.7-52.7,20.1-21.6,47.5-37.2,76.8-44,17.4-4.1,35.3-5.1,52.8-2.4,11.3,1.7,22.4,4.9,33,9.8,3,1.4,5.9,2.9,8.7,4.5,45.6,26.1,66.5,79.5,68.8,122.1,1.4,26.6-4.5,49-16.2,57.7-17.5,13-36.4-12.5-108.2-17.3-33.3-2.2-87.4-5.8-122.2,26.5-1.5,1.4-2.9,2.8-4.2,4.2-7.8-6-15.6-12.1-23.4-18.2-2.3-1.7-4.7-3.1-7.3-4.1,2.7-33.2,8.8-70.9,10.7-86.1h0ZM1060.3,409.5c10.6,17.5,40,17.1,58.3,8.9,22.1-9.9,38.3-45.3,25.4-66.5-10.6-17.5-40.6-16.5-58.9-8.3-22.1,9.9-37.7,44.7-24.8,65.9Z"/>
  <path id="pupulla_sx" class="st1" d="M849.1,391.8c-4.1,4.7-25.7,4-41.6.7-15.9-3.2-33.5-12.7-29.2-17.5,4.1-4.7,28.5-2.9,44.4.3s30.6,11.7,26.5,16.4h-.1Z"/>
  <path id="pupulla_dx" class="st1" d="M1070.9,391.8c4.1,4.7,25.7,4,41.6.7,15.9-3.2,33.5-12.7,29.2-17.5-4.1-4.7-28.5-2.9-44.4.3s-30.6,11.7-26.5,16.4h.1Z"/>
  <path id="sopracciglia_sx" class="st0" d="M890.3,389.5c-27.8-1.4-32.9-58.1-68.3-62.1-52.2-5.9-39.7,19.4-49.2,12.8-9-6.2-4.5-33.2,12.7-44.9,16.8-11.5,39.4-3.9,41.3-10,1.5-4.9-11.4-15.4-26.2-17.1-12.5-1.4-30,21.4-54,22.8-23,1.4-55.1-27.7-44.5-27.1,54.2,3.1,58.7-10.1,58.7-16.5,0-21.1-47.1-3.9-69.1-29.2-14.3-16.4-8.8-38.1-4.8-47.1s37.3,48,58.7,29.3c18.5-16.2-23.4-28.3-19.8-58.5,1.6-13.6,9.2-24.8,17.3-33.1,1.1-1.1,3.3-.7,3.6.7,6.2,37.6,20.9,39,24.9,38.3,19.1-3.1-.5-54.1,37.6-82.3,13.7-10.1,56.3-17,50-12.8-21.2,14-64.8,108.2-26.5,145.5,1.5,1.5-7.9-54.9,32-65.4,8-2.1-24.3,54.5,8.7,97.5,44.9,34.2,65.1,84.5,58.7,119.9-3.2,17.9-23.9,40.1-42.1,39.2h.3,0Z"/>
  <path id="sopracciglia_dx" class="st0" d="M1029.7,389.5c27.8-1.4,32.9-58.1,68.3-62.1,52.2-5.9,39.7,19.4,49.2,12.8,9-6.2,4.5-33.2-12.7-44.9-16.8-11.5-39.4-3.9-41.3-10-1.5-4.9,11.4-15.4,26.2-17.1,12.5-1.4,30,21.4,54,22.8,23,1.4,55.1-27.7,44.5-27.1-54.2,3.1-58.7-10.1-58.7-16.5,0-21.1,47.1-3.9,69.1-29.2,14.3-16.4,8.8-38.1,4.8-47.1s-37.3,48-58.7,29.3c-18.5-16.2,23.4-28.3,19.8-58.5-1.6-13.6-9.2-24.8-17.3-33.1-1.1-1.1-3.3-.7-3.6.7-6.2,37.6-20.9,39-24.9,38.3-19.1-3.1.5-54.1-37.6-82.3-13.7-10.1-56.3-17-50-12.8,21.2,14,64.8,108.2,26.5,145.5-1.5,1.5,7.9-54.9-32-65.4-8-2.1,24.3,54.5-8.7,97.5-44.9,34.2-65.1,84.5-58.7,119.9,3.2,17.9,23.9,40.1,42.1,39.2h-.3Z"/>
  <path id="baffo_dx" class="st0" d="M960,648.2c86.9,44.5,193,41.8,254.9,0,43.6-29.5,73-83.7,45.8-126.2-41.5-64.9-191.4-65.9-248-28.1-13.2,8.8-36.1,29.6-27.6,41.4,7.9,11,41.5,11.8,44.9,6.4,2.5-4-12.3-9.6-10.4-15.9,3-9.8,43.7-10.8,48.4-10.8,21.2-.4,109.1-1.9,122.8,32.5,8.4,21.2-14.8,47.7-43.2,59.9-41.9,18-90.1,2.7-89.9,0,0-2.4,36.8,3.1,50.9-11.5,9.5-9.8,6.6-26.7-5.9-37-17.5-14.3-50.8-13.3-55.3-6.4-5.4,8.3,32.3,23.5,27.6,33.2-3.3,6.9-28.3,10.6-115,0v62.5h0Z"/>
  <path id="baffo_sx" class="st0" d="M960,648.2c-86.9,44.5-193,41.8-254.9,0-43.6-29.5-73-83.7-45.8-126.2,41.5-64.9,191.4-65.9,248-28.1,13.2,8.8,36.1,29.6,27.6,41.4-7.9,11-41.5,11.8-44.9,6.4-2.5-4,12.3-9.6,10.4-15.9-3-9.8-43.7-10.8-48.4-10.8-21.2-.4-109.1-1.9-122.8,32.5-8.4,21.2,14.8,47.7,43.2,59.9,41.9,18,90.1,2.7,89.9,0,0-2.4-36.8,3.1-50.9-11.5-9.5-9.8-6.6-26.7,5.9-37,17.5-14.3,50.8-13.3,55.3-6.4,5.4,8.3-32.3,23.5-27.6,33.2,3.3,6.9,28.3,10.6,115,0v62.5h0Z"/>
  <path id="naso" class="st2" d="M959,501.9h-32c-9.7-11.1-16-15.9-18.6-14.3-2,1.1-2,5.9,0,14.3h-22c-14.6-6-22.9-20.6-20.6-34.4,1.8-10.4,9.6-20.3,21-23.4,11.5-3.1,21,2.2,22.9,3.3,11.7-9.1,23.4-18.2,35.1-27.3,8.3-6.5,19.9-6.5,28.3,0,11.7,9.1,23.4,18.2,35.1,27.3,1.9-1.1,11.5-6.5,22.9-3.3,11.4,3.1,19.3,13.1,21,23.4,2.4,13.8-6,28.4-20.6,34.4h-22c2-8.4,2-13.2,0-14.3-2.7-1.5-8.9,3.3-18.6,14.3h-32"/>
</svg>